<svg xmlns="http://www.w3.org/2000/svg" width="46" height="48" viewBox="0 0 46 48"><path d="M45.14 23.14H29.28a6.17 6.17 0 0 0-6.1-5.5 6.17 6.17 0 0 0-6.1 5.5H.86A.85.85 0 0 0 0 24c0 .48.38.86.86.86h16.26a6.13 6.13 0 1 0 12.1 0h15.92c.48 0 .86-.38.86-.86a.85.85 0 0 0-.86-.86zm-21.96 5.14a4.46 4.46 0 0 1 0-8.92 4.46 4.46 0 0 1 0 8.92zM40.04 36c-3 0-5.48 2.24-5.9 5.14H.86A.85.85 0 0 0 0 42c0 .48.38.86.86.86h33.28a5.99 5.99 0 0 0 5.9 5.14 6 6 0 0 0 0-12zm0 10.28A4.27 4.27 0 0 1 35.78 42a4.27 4.27 0 1 1 8.52 0 4.28 4.28 0 0 1-4.26 4.28zM5.96 12c3 0 5.48-2.24 5.9-5.14h33.28c.48 0 .86-.38.86-.86a.85.85 0 0 0-.86-.86H11.86A5.99 5.99 0 0 0 5.96 0a6 6 0 0 0 0 12zm0-10.28A4.27 4.27 0 0 1 10.22 6 4.27 4.27 0 1 1 1.7 6a4.28 4.28 0 0 1 4.26-4.28z"/></svg>