<?xml version="1.0" encoding="UTF-8"?>
<svg width="23px" height="24px" viewBox="0 0 23 24" version="1.1" xmlns="http://www.w3.org/2000/svg" xmlns:xlink="http://www.w3.org/1999/xlink">
    <!-- Generator: Sketch 45 (43475) - http://www.bohemiancoding.com/sketch -->
    <title>ico_controls</title>
    <desc>Created with Sketch.</desc>
    <defs></defs>
    <g id="Pages" stroke="none" stroke-width="1" fill="none" fill-rule="evenodd">
        <g id="channel-320" transform="translate(-277.000000, -40.000000)" fill-rule="nonzero" fill="#000000">
            <g id="Logo">
                <g id="btn_pult" transform="translate(256.000000, 20.000000)">
                    <path d="M43.5740741,31.5714286 L35.6382222,31.5714286 C35.4695556,30.0277143 34.1666481,28.8225714 32.5881667,28.8225714 C31.0096852,28.8225714 29.7067778,30.0281429 29.5381111,31.5714286 L21.4259259,31.5714286 C21.1908148,31.5714286 21,31.763 21,32 C21,32.237 21.1908148,32.4285714 21.4259259,32.4285714 L29.5649444,32.4285714 C29.8107037,33.8857143 31.0710185,35 32.5881667,35 C34.1053148,35 35.3652037,33.8857143 35.610963,32.4285714 L43.5740741,32.4285714 C43.8096111,32.4285714 44,32.237 44,32 C44,31.763 43.8096111,31.5714286 43.5740741,31.5714286 Z M32.5881667,34.1428571 C31.3653333,34.1428571 30.3703704,33.1417143 30.3703704,31.9112857 C30.3703704,30.6808571 31.3653333,29.6797143 32.5881667,29.6797143 C33.811,29.6797143 34.805963,30.6808571 34.805963,31.9112857 C34.805963,33.1417143 33.811,34.1428571 32.5881667,34.1428571 Z M41.0185185,38 C39.5196852,38 38.278963,39.1202857 38.0711111,40.5714286 L21.4259259,40.5714286 C21.1908148,40.5714286 21,40.763 21,41 C21,41.237 21.1908148,41.4285714 21.4259259,41.4285714 L38.0711111,41.4285714 C38.278963,42.8797143 39.5196852,44 41.0185185,44 C42.6621667,44 44,42.6538571 44,41 C44,39.3461429 42.6621667,38 41.0185185,38 Z M41.0185185,43.1428571 C39.8442407,43.1428571 38.8888889,42.1815714 38.8888889,41 C38.8888889,39.8184286 39.8442407,38.8571429 41.0185185,38.8571429 C42.1927963,38.8571429 43.1481481,39.8184286 43.1481481,41 C43.1481481,42.1815714 42.1927963,43.1428571 41.0185185,43.1428571 Z M23.9814815,26 C25.4803148,26 26.721037,24.8797143 26.9288889,23.4285714 L43.5740741,23.4285714 C43.8096111,23.4285714 44,23.237 44,23 C44,22.763 43.8096111,22.5714286 43.5740741,22.5714286 L26.9288889,22.5714286 C26.721037,21.1202857 25.4803148,20 23.9814815,20 C22.3374074,20 21,21.3461429 21,23 C21,24.6538571 22.3374074,26 23.9814815,26 Z M23.9814815,20.8571429 C25.1557593,20.8571429 26.1111111,21.8184286 26.1111111,23 C26.1111111,24.1815714 25.1557593,25.1428571 23.9814815,25.1428571 C22.8072037,25.1428571 21.8518519,24.1815714 21.8518519,23 C21.8518519,21.8184286 22.8072037,20.8571429 23.9814815,20.8571429 Z" id="ico_controls"></path>
                </g>
            </g>
        </g>
    </g>
</svg>