<svg xmlns="http://www.w3.org/2000/svg" width="16" height="14" viewBox="0 0 16 14"><path d="M8.67 10.13a.48.48 0 0 0-.14.35c0 .14.05.25.14.35a.52.52 0 0 0 .71 0l3.45-3.45a.49.49 0 0 0 .11-.18.64.64 0 0 0 .03-.2.64.64 0 0 0-.03-.2.39.39 0 0 0-.11-.17L9.38 3.17a.52.52 0 0 0-.71 0 .52.52 0 0 0 0 .71L11.3 6.5H.5a.47.47 0 0 0-.35.15c-.1.1-.15.21-.15.35 0 .14.05.25.15.35.1.1.21.15.35.15h10.8zM15.41.59c.39.39.59.86.59 1.41v10c0 .55-.2 1.02-.59 1.41-.39.39-.86.59-1.41.59H4c-.55 0-1.02-.2-1.41-.59A1.93 1.93 0 0 1 2 12v-2h1v2c0 .27.1.51.3.7.19.2.43.3.7.3h10c.27 0 .51-.1.7-.3.2-.19.3-.43.3-.7V2c0-.27-.1-.51-.3-.7A.94.94 0 0 0 14 1H4c-.27 0-.51.1-.7.3-.2.19-.3.43-.3.7v2H2V2c0-.55.2-1.02.59-1.41C2.98.2 3.45 0 4 0h10c.55 0 1.02.2 1.41.59z"/></svg>