<svg xmlns="http://www.w3.org/2000/svg" width="18" height="21" viewBox="0 0 18 21"><path d="M14.25 12.54a3.5 3.5 0 0 0-1.82.49c-.55.33-1 .76-1.34 1.29l-4.01-2.36c.12-.25.22-.53.3-.82a3.34 3.34 0 0 0-.07-2.01l4.2-2.46a3.52 3.52 0 0 0 2.74 1.25c1.03 0 1.91-.37 2.65-1.13A3.76 3.76 0 0 0 18 4.08c0-1.06-.37-1.97-1.1-2.72A3.6 3.6 0 0 0 14.25.23a3.6 3.6 0 0 0-2.65 1.13 3.77 3.77 0 0 0-.91 3.82l-4.2 2.45a3.94 3.94 0 0 0-1.22-.91 3.6 3.6 0 0 0-4.17.79A3.78 3.78 0 0 0 0 10.23c0 1.06.37 1.96 1.1 2.72a3.6 3.6 0 0 0 3.86.91 4.2 4.2 0 0 0 1.06-.58l-.02.03 4.55 2.67-.04.2-.01.2c0 1.06.37 1.97 1.1 2.72a3.6 3.6 0 0 0 2.65 1.13 3.6 3.6 0 0 0 2.65-1.13 3.77 3.77 0 0 0 1.1-2.72c0-1.05-.37-1.96-1.1-2.71a3.6 3.6 0 0 0-2.65-1.13zm0-10.77c.63 0 1.16.22 1.59.67.44.45.66 1 .66 1.64 0 .64-.22 1.18-.66 1.63a2.1 2.1 0 0 1-1.59.67 2.1 2.1 0 0 1-1.59-.67A2.24 2.24 0 0 1 12 4.08c0-.64.22-1.19.66-1.64a2.1 2.1 0 0 1 1.59-.67zM3.75 12.54c-.63 0-1.16-.23-1.59-.67-.44-.45-.66-1-.66-1.64 0-.64.22-1.19.66-1.63.43-.45.96-.68 1.59-.68.63 0 1.16.23 1.59.68.44.44.66.99.66 1.63 0 .64-.22 1.19-.66 1.64-.43.44-.96.67-1.59.67zm10.5 6.15a2.1 2.1 0 0 1-1.59-.67 2.25 2.25 0 0 1-.66-1.64c0-.64.22-1.18.66-1.63a2.1 2.1 0 0 1 1.59-.67c.63 0 1.16.22 1.59.67.44.45.66.99.66 1.63 0 .65-.22 1.19-.66 1.64a2.1 2.1 0 0 1-1.59.67z"/></svg>