<svg xmlns="http://www.w3.org/2000/svg" width="16" height="16" viewBox="0 0 16 16"><path fill="#fff" d="M11.67 9.75l-.17.29 4.5 4.54L14.58 16l-4.5-4.54-.29.21a6.46 6.46 0 0 1-3.46 1.04 6.08 6.08 0 0 1-4.48-1.88A6.2 6.2 0 0 1 0 6.33c0-1.75.62-3.24 1.85-4.48A6.13 6.13 0 0 1 6.33 0c1.75 0 3.25.62 4.48 1.85a6.34 6.34 0 0 1 .86 7.9zM9.88 2.79a4.86 4.86 0 0 0-3.55-1.46c-1.39 0-2.57.49-3.54 1.46a4.82 4.82 0 0 0-1.46 3.54c0 1.39.49 2.57 1.46 3.55a4.81 4.81 0 0 0 3.54 1.45c1.39 0 2.57-.48 3.55-1.45 1-1.01 1.5-2.19 1.5-3.55 0-1.36-.5-2.54-1.5-3.54z"/></svg>