<svg xmlns="http://www.w3.org/2000/svg" width="24" height="16" viewBox="0 0 24 16"><path fill="#dc4e41" d="M7.64 6.86V9.6h4.33a4.18 4.18 0 0 1-4.33 3.45C5.03 13.05 2.9 10.79 2.9 8s2.13-5.05 4.74-5.05a4.2 4.2 0 0 1 3.04 1.23l2.07-2.09A7.14 7.14 0 0 0 7.64 0C3.41 0 0 3.58 0 8s3.41 8 7.64 8c4.4 0 7.33-3.25 7.33-7.82 0-.52-.06-.92-.12-1.32zM24 9.14h-2.18v2.29h-2.18V9.14h-2.19V6.86h2.19V4.57h2.18v2.29H24z"/><path fill="#858889" d="M7.64 6.86V9.6h4.33a4.18 4.18 0 0 1-4.33 3.45C5.03 13.05 2.9 10.79 2.9 8s2.13-5.05 4.74-5.05a4.2 4.2 0 0 1 3.04 1.23l2.07-2.09A7.14 7.14 0 0 0 7.64 0C3.41 0 0 3.58 0 8s3.41 8 7.64 8c4.4 0 7.33-3.25 7.33-7.82 0-.52-.06-.92-.12-1.32zM24 9.14h-2.18v2.29h-2.18V9.14h-2.19V6.86h2.19V4.57h2.18v2.29H24z"/></svg>