<svg xmlns="http://www.w3.org/2000/svg" width="24" height="20" viewBox="0 0 24 20"><path fill="#1da1f2" d="M24 2.37a9.3 9.3 0 0 1-2.83.8A5.04 5.04 0 0 0 23.34.38a9.9 9.9 0 0 1-3.13 1.22 4.83 4.83 0 0 0-5.92-1 5.09 5.09 0 0 0-2.47 5.6A13.87 13.87 0 0 1 1.67.93a5.13 5.13 0 0 0 1.52 6.74 4.9 4.9 0 0 1-2.23-.63v.06c0 2.4 1.66 4.47 3.95 4.95a4.9 4.9 0 0 1-2.22.09 4.94 4.94 0 0 0 4.6 3.5A9.76 9.76 0 0 1 0 17.73 13.65 13.65 0 0 0 7.55 20c9.05 0 14.01-7.69 14.01-14.36l-.02-.65c.97-.72 1.8-1.6 2.46-2.61"/><path fill="#858889" d="M24 2.37a9.3 9.3 0 0 1-2.83.8A5.04 5.04 0 0 0 23.34.38a9.9 9.9 0 0 1-3.13 1.22 4.83 4.83 0 0 0-5.92-1 5.09 5.09 0 0 0-2.47 5.6A13.87 13.87 0 0 1 1.67.93a5.13 5.13 0 0 0 1.52 6.74 4.9 4.9 0 0 1-2.23-.63v.06c0 2.4 1.66 4.47 3.95 4.95a4.9 4.9 0 0 1-2.22.09 4.94 4.94 0 0 0 4.6 3.5A9.76 9.76 0 0 1 0 17.73 13.65 13.65 0 0 0 7.55 20c9.05 0 14.01-7.69 14.01-14.36l-.02-.65c.97-.72 1.8-1.6 2.46-2.61"/></svg>