<svg xmlns="http://www.w3.org/2000/svg" width="24" height="24" viewBox="0 0 24 24"><path fill="#178bf4" d="M21.18 17.65c0 .37-.15.72-.41.98l-2.17 2.15c-.27.25-.6.38-1 .38s-.73-.13-1-.4l-3.02-3.04a1.34 1.34 0 0 1-.42-1c0-.41.16-.77.49-1.07l.27.28.32.31c.09.08.18.16.28.22.11.09.24.16.37.2.12.03.26.05.4.05.4 0 .73-.14 1-.41.28-.28.42-.61.42-1.01.01-.28-.08-.55-.25-.78a5.7 5.7 0 0 0-.22-.28l-.31-.31-.28-.27c.29-.32.64-.47 1.06-.47.37-.01.73.14 1 .41l3.05 3.06c.28.27.42.6.42 1zM10.84 7.28c0 .41-.17.77-.49 1.07l-.27-.28a3.81 3.81 0 0 0-.6-.53c-.22-.18-.5-.26-.78-.25-.39 0-.72.14-.99.42-.28.27-.42.6-.42.99-.01.29.07.56.25.79l.22.27.31.32.28.27c-.29.31-.64.46-1.06.46-.4 0-.73-.13-1-.4L3.24 7.35c-.28-.27-.42-.6-.42-1 0-.37.15-.72.42-.98L5.4 3.22a1.42 1.42 0 0 1 2 .02l3.03 3.04c.27.28.41.61.41 1zM24 17.65c0-1.18-.41-2.18-1.24-3l-3.06-3.06a4.05 4.05 0 0 0-3-1.24c-1.19 0-2.21.43-3.05 1.3l-1.3-1.3a4.15 4.15 0 0 0 1.3-3.07c0-1.18-.41-2.17-1.22-2.99L9.4 1.25A4.06 4.06 0 0 0 6.4 0C5.22 0 4.22.41 3.41 1.22L1.25 3.37A4.02 4.02 0 0 0 0 6.35a4.1 4.1 0 0 0 1.24 3.01l3.05 3.05a4.12 4.12 0 0 0 3 1.24c1.2 0 2.22-.44 3.06-1.3l1.3 1.3a4.13 4.13 0 0 0-1.3 3.07c0 1.18.41 2.17 1.22 2.99l3.03 3.04a4.06 4.06 0 0 0 3 1.25c1.18 0 2.18-.41 2.99-1.22l2.16-2.15A4.02 4.02 0 0 0 24 17.65z"/><path fill="#858889" d="M21.18 17.65c0 .37-.15.72-.41.98l-2.17 2.15c-.27.25-.6.38-1 .38s-.73-.13-1-.4l-3.02-3.04a1.34 1.34 0 0 1-.42-1c0-.41.16-.77.49-1.07l.27.28.32.31c.09.08.18.16.28.22.11.09.24.16.37.2.12.03.26.05.4.05.4 0 .73-.14 1-.41.28-.28.42-.61.42-1.01.01-.28-.08-.55-.25-.78a5.7 5.7 0 0 0-.22-.28l-.31-.31-.28-.27c.29-.32.64-.47 1.06-.47.37-.01.73.14 1 .41l3.05 3.06c.28.27.42.6.42 1zM10.84 7.28c0 .41-.17.77-.49 1.07l-.27-.28a3.81 3.81 0 0 0-.6-.53c-.22-.18-.5-.26-.78-.25-.39 0-.72.14-.99.42-.28.27-.42.6-.42.99-.01.29.07.56.25.79l.22.27.31.32.28.27c-.29.31-.64.46-1.06.46-.4 0-.73-.13-1-.4L3.24 7.35c-.28-.27-.42-.6-.42-1 0-.37.15-.72.42-.98L5.4 3.22a1.42 1.42 0 0 1 2 .02l3.03 3.04c.27.28.41.61.41 1zM24 17.65c0-1.18-.41-2.18-1.24-3l-3.06-3.06a4.05 4.05 0 0 0-3-1.24c-1.19 0-2.21.43-3.05 1.3l-1.3-1.3a4.15 4.15 0 0 0 1.3-3.07c0-1.18-.41-2.17-1.22-2.99L9.4 1.25A4.06 4.06 0 0 0 6.4 0C5.22 0 4.22.41 3.41 1.22L1.25 3.37A4.02 4.02 0 0 0 0 6.35a4.1 4.1 0 0 0 1.24 3.01l3.05 3.05a4.12 4.12 0 0 0 3 1.24c1.2 0 2.22-.44 3.06-1.3l1.3 1.3a4.13 4.13 0 0 0-1.3 3.07c0 1.18.41 2.17 1.22 2.99l3.03 3.04a4.06 4.06 0 0 0 3 1.25c1.18 0 2.18-.41 2.99-1.22l2.16-2.15A4.02 4.02 0 0 0 24 17.65z"/></svg>