<svg xmlns="http://www.w3.org/2000/svg" width="26" height="16" viewBox="0 0 26 16"><path fill="#6383a8" d="M24.97 2.01s-.18-.51-1.26-.37l-3.6.03a.8.8 0 0 0-.48.07s-.21.12-.31.4c-.38.99-.83 1.95-1.34 2.87-1.6 2.79-2.25 2.94-2.51 2.76-.61-.39-.45-1.61-.45-2.47 0-2.71.4-3.84-.79-4.13A6.63 6.63 0 0 0 12.55 1c-1.29-.01-2.38 0-2.99.31-.41.21-.72.67-.54.69.24.04.78.15 1.07.55 0 0 .31.52.36 1.67.13 3.18-.5 3.58-.5 3.58-.49.27-1.34-.18-2.59-2.81 0 0-.72-1.3-1.29-2.73-.1-.27-.3-.41-.3-.41s-.22-.18-.55-.23l-3.42.02c-.53 0-.71.25-.71.25s-.19.2-.02.62c2.68 6.43 5.73 9.65 5.73 9.65s2.78 2.97 5.95 2.77h1.43c.44-.04.66-.28.66-.28s.21-.23.19-.65c-.02-1.97.88-2.27.88-2.27.87-.28 2 1.91 3.2 2.75 0 0 .91.64 1.6.5l3.19-.05c1.69-.01.89-1.44.89-1.44-.06-.12-.46-1-2.39-2.83-2-1.9-1.73-1.59.69-4.89 1.48-2.01 2.06-3.23 1.88-3.76z"/><path fill="#858889" d="M24.97 2.01s-.18-.51-1.26-.37l-3.6.03a.8.8 0 0 0-.48.07s-.21.12-.31.4c-.38.99-.83 1.95-1.34 2.87-1.6 2.79-2.25 2.94-2.51 2.76-.61-.39-.45-1.61-.45-2.47 0-2.71.4-3.84-.79-4.13A6.63 6.63 0 0 0 12.55 1c-1.29-.01-2.38 0-2.99.31-.41.21-.72.67-.54.69.24.04.78.15 1.07.55 0 0 .31.52.36 1.67.13 3.18-.5 3.58-.5 3.58-.49.27-1.34-.18-2.59-2.81 0 0-.72-1.3-1.29-2.73-.1-.27-.3-.41-.3-.41s-.22-.18-.55-.23l-3.42.02c-.53 0-.71.25-.71.25s-.19.2-.02.62c2.68 6.43 5.73 9.65 5.73 9.65s2.78 2.97 5.95 2.77h1.43c.44-.04.66-.28.66-.28s.21-.23.19-.65c-.02-1.97.88-2.27.88-2.27.87-.28 2 1.91 3.2 2.75 0 0 .91.64 1.6.5l3.19-.05c1.69-.01.89-1.44.89-1.44-.06-.12-.46-1-2.39-2.83-2-1.9-1.73-1.59.69-4.89 1.48-2.01 2.06-3.23 1.88-3.76z"/></svg>