<svg xmlns="http://www.w3.org/2000/svg" width="25" height="23" viewBox="0 0 25 23"><path fill="#f5ca59" d="M24.97 8.74a.46.46 0 0 0-.45-.33h-8.47L13.43.32a.46.46 0 0 0-.44-.32.46.46 0 0 0-.44.32L9.91 8.41H1.46c-.2 0-.38.13-.44.33-.06.19.02.39.17.52l6.84 5-2.64 8.13c-.07.19.01.39.17.52.16.12.38.11.55 0l6.88-5.02 6.87 5.02c.08.06.18.09.27.09.09 0 .2-.03.27-.09a.46.46 0 0 0 .17-.52l-2.64-8.14 6.86-5a.42.42 0 0 0 .18-.51z"/><path fill="#858889" d="M24.97 8.74a.46.46 0 0 0-.45-.33h-8.47L13.43.32a.46.46 0 0 0-.44-.32.46.46 0 0 0-.44.32L9.91 8.41H1.46c-.2 0-.38.13-.44.33-.06.19.02.39.17.52l6.84 5-2.64 8.13c-.07.19.01.39.17.52.16.12.38.11.55 0l6.88-5.02 6.87 5.02c.08.06.18.09.27.09.09 0 .2-.03.27-.09a.46.46 0 0 0 .17-.52l-2.64-8.14 6.86-5a.42.42 0 0 0 .18-.51z"/></svg>