<svg xmlns="http://www.w3.org/2000/svg" width="15" height="25" viewBox="0 0 15 25"><path fill="#d57819" d="M7.31 12.29a6.15 6.15 0 1 0 0-12.3 6.15 6.15 0 0 0 0 12.3zm0-9.17a3.02 3.02 0 1 1 0 6.03 3.02 3.02 0 0 1 0-6.03zm7.08 9.92c.61 1.21-.07 1.8-1.62 2.79-1.31.84-3.1 1.16-4.27 1.28l4.6 4.6a1.4 1.4 0 0 1 0 1.99l-.17.17a1.4 1.4 0 0 1-1.99 0l-3.62-3.62-3.62 3.62a1.4 1.4 0 0 1-1.99 0l-.17-.17a1.4 1.4 0 0 1 0-1.99l3.62-3.62.98-.98a10.3 10.3 0 0 1-4.3-1.28C.3 14.84-.38 14.26.22 13.04c.35-.7 1.31-1.28 2.59-.27 1.73 1.36 4.5 1.36 4.5 1.36s2.77 0 4.5-1.36c1.27-1.01 2.23-.43 2.58.27z"/><path fill="#858889" d="M7.31 12.29a6.15 6.15 0 1 0 0-12.3 6.15 6.15 0 0 0 0 12.3zm0-9.17a3.02 3.02 0 1 1 0 6.03 3.02 3.02 0 0 1 0-6.03zm7.08 9.92c.61 1.21-.07 1.8-1.62 2.79-1.31.84-3.1 1.16-4.27 1.28l4.6 4.6a1.4 1.4 0 0 1 0 1.99l-.17.17a1.4 1.4 0 0 1-1.99 0l-3.62-3.62-3.62 3.62a1.4 1.4 0 0 1-1.99 0l-.17-.17a1.4 1.4 0 0 1 0-1.99l3.62-3.62.98-.98a10.3 10.3 0 0 1-4.3-1.28C.3 14.84-.38 14.26.22 13.04c.35-.7 1.31-1.28 2.59-.27 1.73 1.36 4.5 1.36 4.5 1.36s2.77 0 4.5-1.36c1.27-1.01 2.23-.43 2.58.27z"/></svg>