<svg xmlns="http://www.w3.org/2000/svg" width="17" height="24" viewBox="0 0 17 24"><path fill="#f26e2a" d="M6.79 3.65C6.79.81 4.74 0 3.48 0 2 0 0 .98 0 2.84c0 .93.52 1.39 1.03 1.39.52 0 1.03-.24 1.03-.7 0-.46.74-.29.74.24v16.06c0 1.02 2.68 4.17 7.22 4.17 3.96 0 6.98-2.95 6.98-7.64-.01-8.12-6.51-9.88-10.21-6.33zm-.01 16v-5.86c2.97-3.42 6.46-2.13 6.46 2.05 0 2.07-.69 4.89-3.89 4.84-1.37-.01-2.57-1.03-2.57-1.03z"/><path fill="#858889" d="M6.79 3.65C6.79.81 4.74 0 3.48 0 2 0 0 .98 0 2.84c0 .93.52 1.39 1.03 1.39.52 0 1.03-.24 1.03-.7 0-.46.74-.29.74.24v16.06c0 1.02 2.68 4.17 7.22 4.17 3.96 0 6.98-2.95 6.98-7.64-.01-8.12-6.51-9.88-10.21-6.33zm-.01 16v-5.86c2.97-3.42 6.46-2.13 6.46 2.05 0 2.07-.69 4.89-3.89 4.84-1.37-.01-2.57-1.03-2.57-1.03z"/></svg>