<svg xmlns="http://www.w3.org/2000/svg" width="24" height="20" viewBox="0 0 24 20"><path fill="#08c" d="M9.27 12.58a.57.57 0 0 0-.18.34l-.38 3.35c-.01.11-.17.13-.2.02l-1.57-5.01a.52.52 0 0 1 .22-.6L18.9 3.49c.27-.16.54.21.3.41zM.5 8.31a.76.76 0 0 0 .06 1.45L6 11.35l2.02 6.36a.95.95 0 0 0 1.56.37l2.81-2.84 5.51 4c.68.49 1.64.12 1.81-.68l3.65-17.25A1.09 1.09 0 0 0 21.89.08z"/><path fill="#858889" d="M9.27 12.58a.57.57 0 0 0-.18.34l-.38 3.35c-.01.11-.17.13-.2.02l-1.57-5.01a.52.52 0 0 1 .22-.6L18.9 3.49c.27-.16.54.21.3.41zM.5 8.31a.76.76 0 0 0 .06 1.45L6 11.35l2.02 6.36a.95.95 0 0 0 1.56.37l2.81-2.84 5.51 4c.68.49 1.64.12 1.81-.68l3.65-17.25A1.09 1.09 0 0 0 21.89.08z"/></svg>