<svg xmlns="http://www.w3.org/2000/svg" width="16" height="16" viewBox="0 0 16 16"><path fill="#fff" d="M6.12 5.65a.47.47 0 0 0-.47.47v3.76c0 .26.21.47.47.47h3.76c.26 0 .47-.21.47-.47V6.12a.47.47 0 0 0-.47-.47zm.47.94h2.82v2.82H6.59zM6.12 0a.47.47 0 0 0-.47.47v3.77c0 .26.21.47.47.47h3.76c.26 0 .47-.21.47-.47V.47A.47.47 0 0 0 9.88 0zm.47.94h2.82v2.82H6.59zm-.47 10.35a.47.47 0 0 0-.47.47v3.77c0 .26.21.47.47.47h3.76c.26 0 .47-.21.47-.47v-3.77a.47.47 0 0 0-.47-.47zm.47.95h2.82v2.82H6.59zm-6.12-.95a.47.47 0 0 0-.47.47v3.77c0 .26.21.47.47.47h3.77c.26 0 .47-.21.47-.47v-3.77a.47.47 0 0 0-.47-.47zm.47.95h2.82v2.82H.94zM.47 5.65a.47.47 0 0 0-.47.47v3.76c0 .26.21.47.47.47h3.77c.26 0 .47-.21.47-.47V6.12a.47.47 0 0 0-.47-.47zm.47.94h2.82v2.82H.94zM.47 0A.47.47 0 0 0 0 .47v3.77c0 .26.21.47.47.47h3.77c.26 0 .47-.21.47-.47V.47A.47.47 0 0 0 4.24 0zm.47.94h2.82v2.82H.94zM11.76 0a.47.47 0 0 0-.47.47v3.77c0 .26.21.47.47.47h3.77c.26 0 .47-.21.47-.47V.47a.47.47 0 0 0-.47-.47zm.48.94h2.82v2.82h-2.82zm-.48 4.71a.47.47 0 0 0-.47.47v3.76c0 .26.21.47.47.47h3.77c.26 0 .47-.21.47-.47V6.12a.47.47 0 0 0-.47-.47zm.48.94h2.82v2.82h-2.82zm-.48 4.7a.47.47 0 0 0-.47.47v3.77c0 .26.21.47.47.47h3.77c.26 0 .47-.21.47-.47v-3.77a.47.47 0 0 0-.47-.47zm.48.95h2.82v2.82h-2.82z"/></svg>