<?xml version="1.0" encoding="UTF-8"?><!DOCTYPE svg PUBLIC "-//W3C//DTD SVG 1.1//EN" "http://www.w3.org/Graphics/SVG/1.1/DTD/svg11.dtd"><svg xmlns="http://www.w3.org/2000/svg"><defs>
        <clipPath id="a">
            <path d="M585 423.07a8.07 8.07 0 0 1 8.07-8.07h239.86a8.07 8.07 0 0 1 8.07 8.07v146.86a8.07 8.07 0 0 1-8.07 8.07H593.07a8.07 8.07 0 0 1-8.07-8.07z"/>
        </clipPath>
        <clipPath id="b">
            <path d="M669 605c0-1.1.9-2 2-2h84a2 2 0 1 1 0 4h-84a2 2 0 0 1-2-2z"/>
        </clipPath>
        <clipPath id="c">
            <path d="M708 605v-30h10v30z"/>
        </clipPath>
        <clipPath id="d">
            <path d="M815 465.07a8.07 8.07 0 0 1 8.07-8.07h96.86a8.07 8.07 0 0 1 8.07 8.07v133.86a8.07 8.07 0 0 1-8.07 8.07h-96.86a8.07 8.07 0 0 1-8.07-8.07z"/>
        </clipPath>
        <clipPath id="e">
            <path d="M762 505.07a8.07 8.07 0 0 1 8.07-8.07h51.86a8.07 8.07 0 0 1 8.07 8.07v93.86a8.07 8.07 0 0 1-8.07 8.07h-51.86a8.07 8.07 0 0 1-8.07-8.07z"/>
        </clipPath>
    
        <style>
            .cls-1{fill:none;stroke:#231f20;stroke-linecap:round;stroke-linejoin:round;stroke-width:2px}
        </style>
    
        <clipPath id="a">
            <path d="M159 208.5l-5.29 2.78 1.01-5.89-4.28-4.17 5.91-.86L159 195l2.65 5.36 5.91.86-4.28 4.17 1.01 5.89z"/>
        </clipPath>
    </defs><symbol id="icon-arch" viewBox="0 0 24 24">
    <title/>
    <g fill-rule="evenodd">
        <path d="M2.181 10C3.121 4.88 7.608 1 13 1c6.075 0 11 4.925 11 11s-4.925 11-11 11a11 11 0 0 1-9.798-5.995H4.34A9.996 9.996 0 0 0 13 22c5.523 0 10-4.477 10-10S18.523 2 13 2c-4.838 0-8.873 3.436-9.8 8H2.181zM12.5 12.35l5.21 3.071.509-.861-4.719-2.806V5.032h-1v7.318zM2.5 13L5 10H0l2.5 3z"/>
    </g>
</symbol><symbol id="icon-arrow-left" viewBox="0 0 20 12">
    <path d="M5.72 12a.96.96 0 0 1-.7-.26L.26 6.71A.9.9 0 0 1 0 6.03a.9.9 0 0 1 .27-.69L5 .33A1 1 0 0 1 5.72 0c.18 0 .45.05.71.31.44.42.44.95 0 1.37l-3.2 3.41h15.8c.59 0 .97.37.97.94s-.38.94-.97.94H3.23l3.22 3.42c.25.24.31.5.31.67 0 .17-.06.43-.33.68a.96.96 0 0 1-.71.26"/>
</symbol><symbol id="icon-arrow-right" viewBox="0 0 20 12">
    <path d="M14.28 12a.96.96 0 0 1-.71-.26.92.92 0 0 1-.33-.68c0-.17.06-.43.31-.67l3.22-3.42H.97C.38 6.97 0 6.6 0 6.03s.38-.94.97-.94h15.8l-3.2-3.41c-.44-.42-.44-.95 0-1.37a.98.98 0 0 1 .71-.31 1 1 0 0 1 .72.33l4.73 5.01a.9.9 0 0 1 .27.69.9.9 0 0 1-.26.68l-4.76 5.03a.96.96 0 0 1-.7.26z"/>
</symbol><symbol id="icon-big-cross" viewBox="0 0 30 32">
    <path d="M.38 31.71a1.2 1.2 0 0 1-.08-1.67l13.12-14.05L.39 2.03A1.22 1.22 0 0 1 .35.34a1.08 1.08 0 0 1 1.59.01l12.79 13.69.27.27.27-.27L28.07.35c.2-.23.5-.35.8-.35.3 0 .57.12.78.34.44.46.43 1.23-.04 1.69L16.58 15.99 29.7 30.04a1.2 1.2 0 0 1-.08 1.67c-.2.18-.47.29-.75.29-.3 0-.6-.14-.83-.38L15.26 17.93l-.26-.26-.26.26L1.96 31.62c-.22.24-.52.38-.83.38-.28 0-.54-.11-.75-.29z"/>
</symbol><symbol id="icon-check-mark" viewBox="0 0 42 30">
    <path d="M39.24.02c-.34.04-.65.2-.89.45L13.31 25.32l-9.67-9.6a1.54 1.54 0 0 0-2.19-.01c-.61.61-.6 1.59.03 2.18l10.75 10.67c.6.59 1.56.59 2.16 0L40.51 2.64c1.1-1.02.22-2.84-1.27-2.62z"/>
</symbol><symbol id="icon-controls" viewBox="0 0 23 24">
    <title>
        ico_controls
    </title>
    <path d="M22.574 11.571h-7.936c-.168-1.543-1.471-2.748-3.05-2.748-1.578 0-2.881 1.205-3.05 2.748H.426A.427.427 0 0 0 0 12c0 .237.19.429.426.429h8.139C8.81 13.886 10.07 15 11.588 15c1.517 0 2.777-1.114 3.023-2.571h7.963A.427.427 0 0 0 23 12a.427.427 0 0 0-.426-.429zm-10.986 2.572A2.227 2.227 0 0 1 9.37 11.91c0-1.23.995-2.231 2.218-2.231a2.227 2.227 0 0 1 2.218 2.231c0 1.23-.995 2.232-2.218 2.232zM20.018 18c-1.498 0-2.739 1.12-2.947 2.571H.426A.427.427 0 0 0 0 21c0 .237.19.429.426.429H17.07C17.28 22.879 18.52 24 20.02 24 21.662 24 23 22.654 23 21s-1.338-3-2.981-3zm0 5.143A2.139 2.139 0 0 1 17.889 21c0-1.182.956-2.143 2.13-2.143 1.175 0 2.13.961 2.13 2.143a2.139 2.139 0 0 1-2.13 2.143zM2.982 6c1.5 0 2.74-1.12 2.948-2.571h16.645A.427.427 0 0 0 23 3a.427.427 0 0 0-.426-.429H5.93C5.72 1.121 4.48 0 2.98 0 1.337 0 0 1.346 0 3s1.337 3 2.981 3zm0-5.143c1.175 0 2.13.961 2.13 2.143a2.139 2.139 0 0 1-2.13 2.143A2.139 2.139 0 0 1 .851 3c0-1.182.956-2.143 2.13-2.143z" fill-rule="nonzero"/>
</symbol><symbol id="icon-controls2" viewBox="0 0 46 48">
    <path d="M45.14 23.14H29.28a6.17 6.17 0 0 0-6.1-5.5 6.17 6.17 0 0 0-6.1 5.5H.86A.85.85 0 0 0 0 24c0 .48.38.86.86.86h16.26a6.13 6.13 0 1 0 12.1 0h15.92c.48 0 .86-.38.86-.86a.85.85 0 0 0-.86-.86zm-21.96 5.14a4.46 4.46 0 0 1 0-8.92 4.46 4.46 0 0 1 0 8.92zM40.04 36c-3 0-5.48 2.24-5.9 5.14H.86A.85.85 0 0 0 0 42c0 .48.38.86.86.86h33.28a5.99 5.99 0 0 0 5.9 5.14 6 6 0 0 0 0-12zm0 10.28A4.27 4.27 0 0 1 35.78 42a4.27 4.27 0 1 1 8.52 0 4.28 4.28 0 0 1-4.26 4.28zM5.96 12c3 0 5.48-2.24 5.9-5.14h33.28c.48 0 .86-.38.86-.86a.85.85 0 0 0-.86-.86H11.86A5.99 5.99 0 0 0 5.96 0a6 6 0 0 0 0 12zm0-10.28A4.27 4.27 0 0 1 10.22 6 4.27 4.27 0 1 1 1.7 6a4.28 4.28 0 0 1 4.26-4.28z"/>
</symbol><symbol id="icon-cross" viewBox="0 0 9 8">
    <path d="M1.44 8a.4.4 0 0 1-.3-.13.42.42 0 0 1-.13-.3c0-.11.05-.22.13-.3L4.4 4.01 1.15.76A.48.48 0 0 1 1 .45a.41.41 0 0 1 .11-.31c.08-.09.2-.14.32-.14.1 0 .21.04.28.11l3.3 3.29L8.26.15c.09-.09.2-.14.31-.14a.4.4 0 0 1 .3.12.4.4 0 0 1 .13.31c0 .12-.05.22-.13.31L5.61 4.01l3.25 3.25c.08.08.13.18.13.3s-.05.22-.13.31a.42.42 0 0 1-.3.12.38.38 0 0 1-.3-.13L5.01 4.61 1.75 7.87a.46.46 0 0 1-.31.13"/>
</symbol><symbol id="icon-double-rarr" viewBox="0 0 17 16">
    <path d="M1.56 16c.16 0 .31-.07.42-.19l6.39-6.85.4-.41a.79.79 0 0 0 0-1.11l-.41-.42L1.97.17a.56.56 0 0 0-.4-.17.52.52 0 0 0-.39.17.6.6 0 0 0 .01.84l6.52 6.98-6.56 7.03c-.22.24-.2.62.04.83.1.1.24.15.37.15zm8 0c.16 0 .31-.07.42-.19l6.39-6.85.4-.41a.79.79 0 0 0 0-1.11l-.41-.42L9.97.17a.56.56 0 0 0-.4-.17.52.52 0 0 0-.39.17.6.6 0 0 0 .01.84l6.52 6.98-6.56 7.03c-.22.24-.2.62.04.83.1.1.24.15.37.15z"/>
</symbol><symbol id="icon-enter" viewBox="0 0 16 14">
    <path d="M8.67 10.13a.48.48 0 0 0-.14.35c0 .14.05.25.14.35a.52.52 0 0 0 .71 0l3.45-3.45a.49.49 0 0 0 .11-.18.64.64 0 0 0 .03-.2.64.64 0 0 0-.03-.2.39.39 0 0 0-.11-.17L9.38 3.17a.52.52 0 0 0-.71 0 .52.52 0 0 0 0 .71L11.3 6.5H.5a.47.47 0 0 0-.35.15c-.1.1-.15.21-.15.35 0 .14.05.25.15.35.1.1.21.15.35.15h10.8zM15.41.59c.39.39.59.86.59 1.41v10c0 .55-.2 1.02-.59 1.41-.39.39-.86.59-1.41.59H4c-.55 0-1.02-.2-1.41-.59A1.93 1.93 0 0 1 2 12v-2h1v2c0 .27.1.51.3.7.19.2.43.3.7.3h10c.27 0 .51-.1.7-.3.2-.19.3-.43.3-.7V2c0-.27-.1-.51-.3-.7A.94.94 0 0 0 14 1H4c-.27 0-.51.1-.7.3-.2.19-.3.43-.3.7v2H2V2c0-.55.2-1.02.59-1.41C2.98.2 3.45 0 4 0h10c.55 0 1.02.2 1.41.59z"/>
</symbol><symbol id="icon-error404" viewBox="0 0 343 258.86">
    
    <path d="M0 74.93a8.07 8.07 0 0 1 8.07-8.07h239.86a8.07 8.07 0 0 1 8.07 8.07V221.8a8.07 8.07 0 0 1-8.07 8.06H8.07A8.07 8.07 0 0 1 0 221.8z"/>
    <path stroke-miterlimit="50" stroke-width="8" d="M585 423.07a8.07 8.07 0 0 1 8.07-8.07h239.86a8.07 8.07 0 0 1 8.07 8.07v146.86a8.07 8.07 0 0 1-8.07 8.07H593.07a8.07 8.07 0 0 1-8.07-8.07z" clip-path="url(&quot;#a&quot;)" transform="translate(-585 -348.14)"/>
    <path d="M84 256.86c0-1.1.9-2 2-2h84a2 2 0 1 1 0 4H86a2 2 0 0 1-2-2z"/>
    <path stroke-miterlimit="50" stroke-width="16.13" d="M669 605c0-1.1.9-2 2-2h84a2 2 0 1 1 0 4h-84a2 2 0 0 1-2-2z" clip-path="url(&quot;#b&quot;)" transform="translate(-585 -348.14)"/>
    <path d="M123 256.86v-30h10v30z"/>
    <path stroke-miterlimit="50" stroke-width="16.13" d="M708 605v-30h10v30z" clip-path="url(&quot;#c&quot;)" transform="translate(-585 -348.14)"/>
    <path d="M153 67.86c0-6.63-10.97-12-24.5-12s-24.5 5.37-24.5 12 49 0 49 0z"/>
    <path stroke-linecap="square" stroke-miterlimit="50" stroke-width="3" d="M135 55.42l15.9-53.56M106 56.15l14.83-27.29"/>
    <path d="M143.13 142.34c-3.09-3.57-4.63-7.89-4.63-12.97a19.5 19.5 0 0 1 4.63-13.06c3.08-3.63 6.82-5.45 11.21-5.45 4.39 0 8.13 1.82 11.21 5.45a19.5 19.5 0 0 1 4.63 13.06c0 5.08-1.54 9.4-4.63 12.97-3.08 3.56-6.82 5.34-11.21 5.34-4.39 0-8.13-1.78-11.21-5.34zm-52.67 0c-3.08-3.57-4.63-7.89-4.63-12.97 0-5.07 1.55-9.42 4.63-13.06 3.09-3.63 6.83-5.45 11.21-5.45 4.39 0 8.13 1.82 11.22 5.45a19.56 19.56 0 0 1 4.63 13.06c0 5.08-1.55 9.4-4.63 12.97-3.09 3.56-6.83 5.34-11.22 5.34-4.38 0-8.12-1.78-11.21-5.34zm37.55 21.18c-17.97 0-30.59 4.12-37.86 12.35-7.26 8.23-11.04 12.62-11.31 13.16a7.52 7.52 0 0 0-.41 5.97 7.51 7.51 0 0 0 5.66 5.14 8.31 8.31 0 0 0 5.96-.92 7.47 7.47 0 0 0 2.98-3.19l7.62-8.33c5.07-5.56 14.19-8.34 27.36-8.34 13.03 0 22.08 2.71 27.15 8.13 5.08 5.42 7.68 8.26 7.82 8.54a8.75 8.75 0 0 0 4.73 4.01c2.06.75 4.05.58 5.97-.5a7.54 7.54 0 0 0 3.91-4.54 7.56 7.56 0 0 0-.42-5.97c-.27-.54-4.01-4.93-11.21-13.16-7.2-8.23-19.85-12.35-37.95-12.35z"/>
    <path d="M230 116.93a8.07 8.07 0 0 1 8.07-8.07h96.86a8.07 8.07 0 0 1 8.07 8.07V250.8a8.07 8.07 0 0 1-8.07 8.06h-96.86a8.07 8.07 0 0 1-8.07-8.06z"/>
    <path stroke-miterlimit="50" stroke-width="8" d="M815 465.07a8.07 8.07 0 0 1 8.07-8.07h96.86a8.07 8.07 0 0 1 8.07 8.07v133.86a8.07 8.07 0 0 1-8.07 8.07h-96.86a8.07 8.07 0 0 1-8.07-8.07z" clip-path="url(&quot;#d&quot;)" transform="translate(-585 -348.14)"/>
    <path d="M283 244.86a4 4 0 1 1 8 0 4 4 0 0 1-8 0zm21-136c0-4.97-8.06-9-18-9s-18 4.03-18 9 36 0 36 0z"/>
    <path stroke-linecap="square" stroke-miterlimit="50" stroke-width="3" d="M290 99.54l11.66-38.68M269 99.57l10.88-19.7"/>
    <path d="M300.98 171.11c2.41 0 4.47-.98 6.17-2.94a10.56 10.56 0 0 0 2.54-7.13c0-2.79-.85-5.18-2.54-7.18a7.83 7.83 0 0 0-12.33 0c-1.7 2-2.55 4.4-2.55 7.18 0 2.8.85 5.17 2.55 7.13a7.86 7.86 0 0 0 6.16 2.94zm-28.96 0c2.41 0 4.47-.98 6.16-2.94a10.51 10.51 0 0 0 2.55-7.13c0-2.79-.85-5.18-2.55-7.18a7.83 7.83 0 0 0-12.33 0c-1.69 2-2.54 4.4-2.54 7.18 0 2.8.85 5.17 2.54 7.13a7.89 7.89 0 0 0 6.17 2.94zm35.35 15.5c3.96 4.52 6.02 6.94 6.17 7.24.53 1.06.6 2.15.22 3.28a4.12 4.12 0 0 1-2.15 2.5c-1.05.6-2.14.7-3.28.27a4.84 4.84 0 0 1-2.6-2.2c-.07-.16-1.51-1.72-4.3-4.7-2.79-2.98-7.77-4.47-14.93-4.47-7.24 0-12.26 1.53-15.05 4.58l-4.18 4.6a4.2 4.2 0 0 1-1.64 1.74 4.6 4.6 0 0 1-3.28.51 4.12 4.12 0 0 1-3.11-2.83 4.12 4.12 0 0 1 .22-3.28c.15-.3 2.23-2.72 6.22-7.24 4-4.53 10.94-6.79 20.82-6.79 9.96 0 16.91 2.26 20.87 6.8z"/>
    <path d="M177 156.93a8.07 8.07 0 0 1 8.07-8.07h51.86a8.07 8.07 0 0 1 8.07 8.07v93.87a8.07 8.07 0 0 1-8.07 8.06h-51.86a8.07 8.07 0 0 1-8.07-8.06z"/>
    <path stroke-miterlimit="50" stroke-width="8" d="M762 505.07a8.07 8.07 0 0 1 8.07-8.07h51.86a8.07 8.07 0 0 1 8.07 8.07v93.86a8.07 8.07 0 0 1-8.07 8.07h-51.86a8.07 8.07 0 0 1-8.07-8.07z" clip-path="url(&quot;#e&quot;)" transform="translate(-585 -348.14)"/>
    <path d="M206 245.86a4 4 0 1 1 8 0 4 4 0 0 1-8 0zm19-96c0-3.87-6.49-7-14.5-7s-14.5 3.13-14.5 7 29 0 29 0z"/>
    <path stroke-linecap="square" stroke-miterlimit="50" stroke-width="3" d="M214 142.6l9.54-31.74M197 143.03l8.9-16.17"/>
    <path d="M219.71 199.75c1.54 0 2.85-.63 3.93-1.88a6.66 6.66 0 0 0 1.62-4.53c0-1.78-.54-3.3-1.62-4.57a4.99 4.99 0 0 0-7.85 0 6.82 6.82 0 0 0-1.62 4.57c0 1.78.54 3.3 1.62 4.53a5.01 5.01 0 0 0 3.92 1.88zm-18.42 0c1.53 0 2.84-.63 3.92-1.88a6.66 6.66 0 0 0 1.62-4.53c0-1.78-.54-3.3-1.62-4.57a4.98 4.98 0 0 0-7.85 0 6.82 6.82 0 0 0-1.62 4.57c0 1.78.54 3.3 1.62 4.53a5.02 5.02 0 0 0 3.93 1.88zm22.49 9.86a95.1 95.1 0 0 1 3.93 4.61c.33.67.38 1.36.14 2.08s-.7 1.25-1.37 1.6a2.4 2.4 0 0 1-2.09.17 3.05 3.05 0 0 1-1.65-1.4c-.05-.1-.96-1.1-2.74-2.99-1.77-1.9-4.94-2.85-9.5-2.85-4.61 0-7.8.98-9.57 2.92l-2.67 2.91c-.24.48-.59.86-1.04 1.12a2.77 2.77 0 0 1-2.09.32 2.67 2.67 0 0 1-1.98-1.8 2.64 2.64 0 0 1 .14-2.08c.1-.2 1.42-1.73 3.96-4.6 2.55-2.89 6.96-4.33 13.25-4.33 6.34 0 10.76 1.44 13.28 4.32z"/>
</symbol><symbol id="icon-heart" viewBox="0 0 48 48">
    
    <title/>
    <path class="cls-1" d="M4.95 26A13.46 13.46 0 0 1 24 6.94 13.46 13.46 0 0 1 43.05 26L24 45z"/>
</symbol><symbol id="icon-icon-larr" viewBox="0 0 9 16">
    <path d="M1.56 16c.16 0 .31-.07.42-.19l6.39-6.85.4-.41a.79.79 0 0 0 0-1.11l-.41-.42L1.97.17a.56.56 0 0 0-.4-.17.52.52 0 0 0-.39.17.6.6 0 0 0 .01.84l6.52 6.98-6.56 7.03c-.22.24-.2.62.04.83.1.1.24.15.37.15z"/>
</symbol><symbol id="icon-icon-rarr" viewBox="0 0 9 16">
    <path d="M1.56 16c.16 0 .31-.07.42-.19l6.39-6.85.4-.41a.79.79 0 0 0 0-1.11l-.41-.42L1.97.17a.56.56 0 0 0-.4-.17.52.52 0 0 0-.39.17.6.6 0 0 0 .01.84l6.52 6.98-6.56 7.03c-.22.24-.2.62.04.83.1.1.24.15.37.15z"/>
</symbol><symbol id="icon-left-arr" viewBox="0 0 9 16">
    <path d="M7.44 16a.57.57 0 0 1-.42-.19L.63 8.96l-.4-.41a.79.79 0 0 1 0-1.11l.41-.42L7.03.17a.56.56 0 0 1 .4-.17c.15 0 .29.06.39.17a.6.6 0 0 1-.01.84L1.29 7.99l6.56 7.03c.22.24.2.62-.04.83-.1.1-.24.15-.37.15z"/>
</symbol><symbol id="icon-logo" viewBox="0 0 159 41">
    <path d="M33.03 9.18c-.3 0-.45.15-.45.48v22.35c0 .32.15.47.45.47h4.28c.3 0 .45-.15.45-.47V9.66c0-.33-.15-.48-.45-.48zm-8.4 0c-.3 0-.45.15-.45.48v22.35c0 .32.15.47.45.47h4.29c.3 0 .44-.15.44-.47V9.66c0-.33-.14-.48-.44-.48zM9.24 21.5h5.03l-2.03-7.44c-.12-.39-.18-.48-.53-.48-.33 0-.36.09-.48.48zm7.92-8.9l5.3 19.41c.06.32-.06.47-.39.47h-4.55c-.21 0-.33-.15-.42-.47l-1.61-6.02H8.01l-1.66 6.02c-.09.32-.21.47-.39.47H1.4c-.33 0-.44-.15-.39-.47L6.35 12.6c.44-1.64.98-2.62 1.58-3 .59-.39 1.87-.6 3.81-.6 1.96 0 3.24.21 3.84.6.6.38 1.13 1.36 1.58 3z"/>
    <path d="M86.26 31.79c-.64.35-1.95.51-3.96.46-1.98-.05-3.27-.24-3.9-.62-.6-.36-1.12-1.34-1.55-2.89L72.9 14.46c-3.41 0-5.12-.01-8.53-.06v17.24c0 .32-.15.46-.46.47-1.88.05-2.83.08-4.71.15-.31.01-.46-.13-.46-.45v-17.5c-2.43-.05-3.65-.08-6.08-.15-.3-.01-.45-.17-.45-.46V9.81c0-.3.15-.43.45-.42 9.64.5 14.47.6 24.13.51.27 0 .31.08.43.45 1.85 6.82 2.77 10.23 4.62 17.14.1.34.22.51.43.52.34 0 .4-.08.49-.51a2327.4 2327.4 0 0 0 4.62-17.37c.09-.35.12-.47.43-.48 1.85-.06 2.77-.1 4.62-.19.33-.02.45.12.39.45-2 7.77-3.01 11.55-5.01 19.02-.4 1.55-.92 2.51-1.55 2.86zM43.45 1.01C42.65.91 42 1.5 42 2.32v37c0 .83.65 1.42 1.45 1.32a236.7 236.7 0 0 1 58.15 0c.8.1 1.45-.49 1.45-1.32v-37c0-.82-.65-1.41-1.45-1.31a236.7 236.7 0 0 1-58.15 0z"/>
    <path d="M152.17 13.02c.31-.39.95-.59 1.92-.59.93 0 1.55.18 1.85.57.29.38.45 1.15.47 2.34h-4.74c.02-1.17.19-1.94.5-2.32zm5.16-1.15c-.53-.65-1.61-.97-3.24-.97-1.7 0-2.84.32-3.37 1-.53.68-.81 2.03-.81 4.1 0 2.06.28 3.42.81 4.09.53.66 1.67.99 3.37.99 1.22 0 2.25-.05 3.05-.16.17-.02.26-.13.26-.29v-.81c0-.18-.09-.27-.27-.27h-3c-.98 0-1.63-.19-1.95-.55-.31-.37-.47-1.12-.49-2.23h5.82c.53 0 .66-.13.66-.52v-.53c-.02-1.94-.31-3.21-.84-3.85zm-11.7-.85c-.47-.09-1.17-.12-2.06-.12-1.52 0-2.8.09-3.81.29-.19.04-.28.05-.28.29v9.24c0 .18.09.27.28.27h1.21c.18 0 .27-.09.27-.27v-8.29h2.51c.82 0 1.12.02 1.55.22a.8.8 0 0 1 .46.46c.17.42.29 1.1.29 2.21v5.4c0 .18.1.27.28.27h1.17c.2 0 .31-.09.31-.27v-5.54c0-1.98-.18-3-.91-3.59a2.58 2.58 0 0 0-1.27-.57zm-10.04-.03c-.18 0-.27.09-.27.27v9.46c0 .18.09.27.27.27h1.21c.19 0 .28-.09.28-.27v-9.46c0-.18-.09-.27-.28-.27zm.61-1.85c.71 0 1.08-.37 1.08-1.08 0-.71-.37-1.06-1.08-1.06-.71 0-1.08.35-1.08 1.06 0 .71.37 1.08 1.08 1.08zm-4.78-1.99c-.18 0-.27.09-.27.27v13.3c0 .18.09.27.27.27h1.21c.18 0 .28-.09.28-.27V7.42c0-.18-.1-.27-.28-.27zm-4.83 3.87c-.47-.09-1.17-.12-2.06-.12-1.52 0-2.8.09-3.81.29-.18.04-.28.05-.28.29v9.24c0 .18.1.27.28.27h1.21c.18 0 .27-.09.27-.27v-8.29h2.51c.82 0 1.12.02 1.56.22.21.09.36.24.45.46.17.42.3 1.1.3 2.21v5.4c0 .18.09.27.27.27h1.17c.2 0 .31-.09.31-.27v-5.54c0-1.98-.18-3-.91-3.59a2.58 2.58 0 0 0-1.27-.57zm-14.01 8.44c1.56 0 2.57-.35 3.02-1.07.46-.71.7-2.15.7-4.29 0-2.22-.11-3.37-.68-4.26-.53-.9-1.43-1.16-3.04-1.16s-2.49.26-3.05 1.16c-.53.89-.66 2.04-.66 4.26 0 2.14.24 3.58.69 4.29.46.72 1.47 1.07 3.02 1.07zm0 1.62c-2.29 0-3.58-.36-4.46-1.48-.86-1.11-1.12-2.71-1.12-5.5 0-2.75.38-4.61 1.13-5.58.76-.97 2.24-1.46 4.45-1.46 2.22 0 3.7.49 4.45 1.46s1.14 2.83 1.14 5.58c0 2.79-.26 4.39-1.14 5.5-.86 1.12-2.16 1.48-4.45 1.48z"/>
</symbol><symbol id="icon-menu" viewBox="0 0 23 19">
    <path d="M.5 18h22a.5.5 0 0 1 0 1H.5a.5.5 0 0 1 0-1zm0-9h22a.5.5 0 0 1 0 1H.5a.5.5 0 0 1 0-1zm0-9h22a.5.5 0 0 1 0 1H.5a.5.5 0 0 1 0-1z"/>
</symbol><symbol id="icon-page" viewBox="0 0 18 21">
    <path d="M14.25 12.54a3.5 3.5 0 0 0-1.82.49c-.55.33-1 .76-1.34 1.29l-4.01-2.36c.12-.25.22-.53.3-.82a3.34 3.34 0 0 0-.07-2.01l4.2-2.46a3.52 3.52 0 0 0 2.74 1.25c1.03 0 1.91-.37 2.65-1.13A3.76 3.76 0 0 0 18 4.08c0-1.06-.37-1.97-1.1-2.72A3.6 3.6 0 0 0 14.25.23a3.6 3.6 0 0 0-2.65 1.13 3.77 3.77 0 0 0-.91 3.82l-4.2 2.45a3.94 3.94 0 0 0-1.22-.91 3.6 3.6 0 0 0-4.17.79A3.78 3.78 0 0 0 0 10.23c0 1.06.37 1.96 1.1 2.72a3.6 3.6 0 0 0 3.86.91 4.2 4.2 0 0 0 1.06-.58l-.02.03 4.55 2.67-.04.2-.01.2c0 1.06.37 1.97 1.1 2.72a3.6 3.6 0 0 0 2.65 1.13 3.6 3.6 0 0 0 2.65-1.13 3.77 3.77 0 0 0 1.1-2.72c0-1.05-.37-1.96-1.1-2.71a3.6 3.6 0 0 0-2.65-1.13zm0-10.77c.63 0 1.16.22 1.59.67.44.45.66 1 .66 1.64 0 .64-.22 1.18-.66 1.63a2.1 2.1 0 0 1-1.59.67 2.1 2.1 0 0 1-1.59-.67A2.24 2.24 0 0 1 12 4.08c0-.64.22-1.19.66-1.64a2.1 2.1 0 0 1 1.59-.67zM3.75 12.54c-.63 0-1.16-.23-1.59-.67-.44-.45-.66-1-.66-1.64 0-.64.22-1.19.66-1.63.43-.45.96-.68 1.59-.68.63 0 1.16.23 1.59.68.44.44.66.99.66 1.63 0 .64-.22 1.19-.66 1.64-.43.44-.96.67-1.59.67zm10.5 6.15a2.1 2.1 0 0 1-1.59-.67 2.25 2.25 0 0 1-.66-1.64c0-.64.22-1.18.66-1.63a2.1 2.1 0 0 1 1.59-.67c.63 0 1.16.22 1.59.67.44.45.66.99.66 1.63 0 .65-.22 1.19-.66 1.64a2.1 2.1 0 0 1-1.59.67z"/>
</symbol><symbol id="icon-right-arr" viewBox="0 0 9 16">
    <path d="M1.56 16c.16 0 .31-.07.42-.19l6.39-6.85.4-.41a.79.79 0 0 0 0-1.11l-.41-.42L1.97.17a.56.56 0 0 0-.4-.17.52.52 0 0 0-.39.17.6.6 0 0 0 .01.84l6.52 6.98-6.56 7.03c-.22.24-.2.62.04.83.1.1.24.15.37.15z"/>
</symbol><symbol id="icon-search" viewBox="0 0 16 16">
    <path d="M11.67 9.75l-.17.29 4.5 4.54L14.58 16l-4.5-4.54-.29.21a6.46 6.46 0 0 1-3.46 1.04 6.08 6.08 0 0 1-4.48-1.88A6.2 6.2 0 0 1 0 6.33c0-1.75.62-3.24 1.85-4.48A6.13 6.13 0 0 1 6.33 0c1.75 0 3.25.62 4.48 1.85a6.34 6.34 0 0 1 .86 7.9zM9.88 2.79a4.86 4.86 0 0 0-3.55-1.46c-1.39 0-2.57.49-3.54 1.46a4.82 4.82 0 0 0-1.46 3.54c0 1.39.49 2.57 1.46 3.55a4.81 4.81 0 0 0 3.54 1.45c1.39 0 2.57-.48 3.55-1.45 1-1.01 1.5-2.19 1.5-3.55 0-1.36-.5-2.54-1.5-3.54z"/>
</symbol><symbol id="icon-social-bitly" viewBox="0 0 17 24">
    <path d="M6.79 3.65C6.79.81 4.74 0 3.48 0 2 0 0 .98 0 2.84c0 .93.52 1.39 1.03 1.39.52 0 1.03-.24 1.03-.7 0-.46.74-.29.74.24v16.06c0 1.02 2.68 4.17 7.22 4.17 3.96 0 6.98-2.95 6.98-7.64-.01-8.12-6.51-9.88-10.21-6.33zm-.01 16v-5.86c2.97-3.42 6.46-2.13 6.46 2.05 0 2.07-.69 4.89-3.89 4.84-1.37-.01-2.57-1.03-2.57-1.03z"/>
    <path d="M6.79 3.65C6.79.81 4.74 0 3.48 0 2 0 0 .98 0 2.84c0 .93.52 1.39 1.03 1.39.52 0 1.03-.24 1.03-.7 0-.46.74-.29.74.24v16.06c0 1.02 2.68 4.17 7.22 4.17 3.96 0 6.98-2.95 6.98-7.64-.01-8.12-6.51-9.88-10.21-6.33zm-.01 16v-5.86c2.97-3.42 6.46-2.13 6.46 2.05 0 2.07-.69 4.89-3.89 4.84-1.37-.01-2.57-1.03-2.57-1.03z"/>
</symbol><symbol id="icon-social-facebook" viewBox="0 0 14 24">
    <path d="M14 .17C13.56.12 12.06 0 10.31 0 6.64 0 4.13 1.99 4.13 5.64v3.14H0v4.27h4.13V24h4.96V13.05h4.12l.63-4.27H9.09V6.06c0-1.23.37-2.08 2.37-2.08H14z"/>
    <path d="M14 .17C13.56.12 12.06 0 10.31 0 6.64 0 4.13 1.99 4.13 5.64v3.14H0v4.27h4.13V24h4.96V13.05h4.12l.63-4.27H9.09V6.06c0-1.23.37-2.08 2.37-2.08H14z"/>
</symbol><symbol id="icon-social-fav" viewBox="0 0 25 23">
    <path d="M24.97 8.74a.46.46 0 0 0-.45-.33h-8.47L13.43.32a.46.46 0 0 0-.44-.32.46.46 0 0 0-.44.32L9.91 8.41H1.46c-.2 0-.38.13-.44.33-.06.19.02.39.17.52l6.84 5-2.64 8.13c-.07.19.01.39.17.52.16.12.38.11.55 0l6.88-5.02 6.87 5.02c.08.06.18.09.27.09.09 0 .2-.03.27-.09a.46.46 0 0 0 .17-.52l-2.64-8.14 6.86-5a.42.42 0 0 0 .18-.51z"/>
    <path d="M24.97 8.74a.46.46 0 0 0-.45-.33h-8.47L13.43.32a.46.46 0 0 0-.44-.32.46.46 0 0 0-.44.32L9.91 8.41H1.46c-.2 0-.38.13-.44.33-.06.19.02.39.17.52l6.84 5-2.64 8.13c-.07.19.01.39.17.52.16.12.38.11.55 0l6.88-5.02 6.87 5.02c.08.06.18.09.27.09.09 0 .2-.03.27-.09a.46.46 0 0 0 .17-.52l-2.64-8.14 6.86-5a.42.42 0 0 0 .18-.51z"/>
</symbol><symbol id="icon-social-gplus" viewBox="0 0 24 16">
    <path d="M7.64 6.86V9.6h4.33a4.18 4.18 0 0 1-4.33 3.45C5.03 13.05 2.9 10.79 2.9 8s2.13-5.05 4.74-5.05a4.2 4.2 0 0 1 3.04 1.23l2.07-2.09A7.14 7.14 0 0 0 7.64 0C3.41 0 0 3.58 0 8s3.41 8 7.64 8c4.4 0 7.33-3.25 7.33-7.82 0-.52-.06-.92-.12-1.32zM24 9.14h-2.18v2.29h-2.18V9.14h-2.19V6.86h2.19V4.57h2.18v2.29H24z"/>
    <path d="M7.64 6.86V9.6h4.33a4.18 4.18 0 0 1-4.33 3.45C5.03 13.05 2.9 10.79 2.9 8s2.13-5.05 4.74-5.05a4.2 4.2 0 0 1 3.04 1.23l2.07-2.09A7.14 7.14 0 0 0 7.64 0C3.41 0 0 3.58 0 8s3.41 8 7.64 8c4.4 0 7.33-3.25 7.33-7.82 0-.52-.06-.92-.12-1.32zM24 9.14h-2.18v2.29h-2.18V9.14h-2.19V6.86h2.19V4.57h2.18v2.29H24z"/>
</symbol><symbol id="icon-social-link" viewBox="0 0 24 24">
    <path d="M21.18 17.65c0 .37-.15.72-.41.98l-2.17 2.15c-.27.25-.6.38-1 .38s-.73-.13-1-.4l-3.02-3.04a1.34 1.34 0 0 1-.42-1c0-.41.16-.77.49-1.07l.27.28.32.31c.09.08.18.16.28.22.11.09.24.16.37.2.12.03.26.05.4.05.4 0 .73-.14 1-.41.28-.28.42-.61.42-1.01.01-.28-.08-.55-.25-.78a5.7 5.7 0 0 0-.22-.28l-.31-.31-.28-.27c.29-.32.64-.47 1.06-.47.37-.01.73.14 1 .41l3.05 3.06c.28.27.42.6.42 1zM10.84 7.28c0 .41-.17.77-.49 1.07l-.27-.28a3.81 3.81 0 0 0-.6-.53c-.22-.18-.5-.26-.78-.25-.39 0-.72.14-.99.42-.28.27-.42.6-.42.99-.01.29.07.56.25.79l.22.27.31.32.28.27c-.29.31-.64.46-1.06.46-.4 0-.73-.13-1-.4L3.24 7.35c-.28-.27-.42-.6-.42-1 0-.37.15-.72.42-.98L5.4 3.22a1.42 1.42 0 0 1 2 .02l3.03 3.04c.27.28.41.61.41 1zM24 17.65c0-1.18-.41-2.18-1.24-3l-3.06-3.06a4.05 4.05 0 0 0-3-1.24c-1.19 0-2.21.43-3.05 1.3l-1.3-1.3a4.15 4.15 0 0 0 1.3-3.07c0-1.18-.41-2.17-1.22-2.99L9.4 1.25A4.06 4.06 0 0 0 6.4 0C5.22 0 4.22.41 3.41 1.22L1.25 3.37A4.02 4.02 0 0 0 0 6.35a4.1 4.1 0 0 0 1.24 3.01l3.05 3.05a4.12 4.12 0 0 0 3 1.24c1.2 0 2.22-.44 3.06-1.3l1.3 1.3a4.13 4.13 0 0 0-1.3 3.07c0 1.18.41 2.17 1.22 2.99l3.03 3.04a4.06 4.06 0 0 0 3 1.25c1.18 0 2.18-.41 2.99-1.22l2.16-2.15A4.02 4.02 0 0 0 24 17.65z"/>
    <path d="M21.18 17.65c0 .37-.15.72-.41.98l-2.17 2.15c-.27.25-.6.38-1 .38s-.73-.13-1-.4l-3.02-3.04a1.34 1.34 0 0 1-.42-1c0-.41.16-.77.49-1.07l.27.28.32.31c.09.08.18.16.28.22.11.09.24.16.37.2.12.03.26.05.4.05.4 0 .73-.14 1-.41.28-.28.42-.61.42-1.01.01-.28-.08-.55-.25-.78a5.7 5.7 0 0 0-.22-.28l-.31-.31-.28-.27c.29-.32.64-.47 1.06-.47.37-.01.73.14 1 .41l3.05 3.06c.28.27.42.6.42 1zM10.84 7.28c0 .41-.17.77-.49 1.07l-.27-.28a3.81 3.81 0 0 0-.6-.53c-.22-.18-.5-.26-.78-.25-.39 0-.72.14-.99.42-.28.27-.42.6-.42.99-.01.29.07.56.25.79l.22.27.31.32.28.27c-.29.31-.64.46-1.06.46-.4 0-.73-.13-1-.4L3.24 7.35c-.28-.27-.42-.6-.42-1 0-.37.15-.72.42-.98L5.4 3.22a1.42 1.42 0 0 1 2 .02l3.03 3.04c.27.28.41.61.41 1zM24 17.65c0-1.18-.41-2.18-1.24-3l-3.06-3.06a4.05 4.05 0 0 0-3-1.24c-1.19 0-2.21.43-3.05 1.3l-1.3-1.3a4.15 4.15 0 0 0 1.3-3.07c0-1.18-.41-2.17-1.22-2.99L9.4 1.25A4.06 4.06 0 0 0 6.4 0C5.22 0 4.22.41 3.41 1.22L1.25 3.37A4.02 4.02 0 0 0 0 6.35a4.1 4.1 0 0 0 1.24 3.01l3.05 3.05a4.12 4.12 0 0 0 3 1.24c1.2 0 2.22-.44 3.06-1.3l1.3 1.3a4.13 4.13 0 0 0-1.3 3.07c0 1.18.41 2.17 1.22 2.99l3.03 3.04a4.06 4.06 0 0 0 3 1.25c1.18 0 2.18-.41 2.99-1.22l2.16-2.15A4.02 4.02 0 0 0 24 17.65z"/>
</symbol><symbol id="icon-social-ok" viewBox="0 0 15 25">
    <path d="M7.31 12.29a6.15 6.15 0 1 0 0-12.3 6.15 6.15 0 0 0 0 12.3zm0-9.17a3.02 3.02 0 1 1 0 6.03 3.02 3.02 0 0 1 0-6.03zm7.08 9.92c.61 1.21-.07 1.8-1.62 2.79-1.31.84-3.1 1.16-4.27 1.28l4.6 4.6a1.4 1.4 0 0 1 0 1.99l-.17.17a1.4 1.4 0 0 1-1.99 0l-3.62-3.62-3.62 3.62a1.4 1.4 0 0 1-1.99 0l-.17-.17a1.4 1.4 0 0 1 0-1.99l3.62-3.62.98-.98a10.3 10.3 0 0 1-4.3-1.28C.3 14.84-.38 14.26.22 13.04c.35-.7 1.31-1.28 2.59-.27 1.73 1.36 4.5 1.36 4.5 1.36s2.77 0 4.5-1.36c1.27-1.01 2.23-.43 2.58.27z"/>
    <path d="M7.31 12.29a6.15 6.15 0 1 0 0-12.3 6.15 6.15 0 0 0 0 12.3zm0-9.17a3.02 3.02 0 1 1 0 6.03 3.02 3.02 0 0 1 0-6.03zm7.08 9.92c.61 1.21-.07 1.8-1.62 2.79-1.31.84-3.1 1.16-4.27 1.28l4.6 4.6a1.4 1.4 0 0 1 0 1.99l-.17.17a1.4 1.4 0 0 1-1.99 0l-3.62-3.62-3.62 3.62a1.4 1.4 0 0 1-1.99 0l-.17-.17a1.4 1.4 0 0 1 0-1.99l3.62-3.62.98-.98a10.3 10.3 0 0 1-4.3-1.28C.3 14.84-.38 14.26.22 13.04c.35-.7 1.31-1.28 2.59-.27 1.73 1.36 4.5 1.36 4.5 1.36s2.77 0 4.5-1.36c1.27-1.01 2.23-.43 2.58.27z"/>
</symbol><symbol id="icon-social-telegram" viewBox="0 0 24 20">
    <path d="M9.27 12.58a.57.57 0 0 0-.18.34l-.38 3.35c-.01.11-.17.13-.2.02l-1.57-5.01a.52.52 0 0 1 .22-.6L18.9 3.49c.27-.16.54.21.3.41zM.5 8.31a.76.76 0 0 0 .06 1.45L6 11.35l2.02 6.36a.95.95 0 0 0 1.56.37l2.81-2.84 5.51 4c.68.49 1.64.12 1.81-.68l3.65-17.25A1.09 1.09 0 0 0 21.89.08z"/>
    <path d="M9.27 12.58a.57.57 0 0 0-.18.34l-.38 3.35c-.01.11-.17.13-.2.02l-1.57-5.01a.52.52 0 0 1 .22-.6L18.9 3.49c.27-.16.54.21.3.41zM.5 8.31a.76.76 0 0 0 .06 1.45L6 11.35l2.02 6.36a.95.95 0 0 0 1.56.37l2.81-2.84 5.51 4c.68.49 1.64.12 1.81-.68l3.65-17.25A1.09 1.09 0 0 0 21.89.08z"/>
</symbol><symbol id="icon-social-twitter" viewBox="0 0 24 20">
    <path d="M24 2.37a9.3 9.3 0 0 1-2.83.8A5.04 5.04 0 0 0 23.34.38a9.9 9.9 0 0 1-3.13 1.22 4.83 4.83 0 0 0-5.92-1 5.09 5.09 0 0 0-2.47 5.6A13.87 13.87 0 0 1 1.67.93a5.13 5.13 0 0 0 1.52 6.74 4.9 4.9 0 0 1-2.23-.63v.06c0 2.4 1.66 4.47 3.95 4.95a4.9 4.9 0 0 1-2.22.09 4.94 4.94 0 0 0 4.6 3.5A9.76 9.76 0 0 1 0 17.73 13.65 13.65 0 0 0 7.55 20c9.05 0 14.01-7.69 14.01-14.36l-.02-.65c.97-.72 1.8-1.6 2.46-2.61"/>
    <path d="M24 2.37a9.3 9.3 0 0 1-2.83.8A5.04 5.04 0 0 0 23.34.38a9.9 9.9 0 0 1-3.13 1.22 4.83 4.83 0 0 0-5.92-1 5.09 5.09 0 0 0-2.47 5.6A13.87 13.87 0 0 1 1.67.93a5.13 5.13 0 0 0 1.52 6.74 4.9 4.9 0 0 1-2.23-.63v.06c0 2.4 1.66 4.47 3.95 4.95a4.9 4.9 0 0 1-2.22.09 4.94 4.94 0 0 0 4.6 3.5A9.76 9.76 0 0 1 0 17.73 13.65 13.65 0 0 0 7.55 20c9.05 0 14.01-7.69 14.01-14.36l-.02-.65c.97-.72 1.8-1.6 2.46-2.61"/>
</symbol><symbol id="icon-social-vk" viewBox="0 0 26 16">
    <path d="M24.97 2.01s-.18-.51-1.26-.37l-3.6.03a.8.8 0 0 0-.48.07s-.21.12-.31.4c-.38.99-.83 1.95-1.34 2.87-1.6 2.79-2.25 2.94-2.51 2.76-.61-.39-.45-1.61-.45-2.47 0-2.71.4-3.84-.79-4.13A6.63 6.63 0 0 0 12.55 1c-1.29-.01-2.38 0-2.99.31-.41.21-.72.67-.54.69.24.04.78.15 1.07.55 0 0 .31.52.36 1.67.13 3.18-.5 3.58-.5 3.58-.49.27-1.34-.18-2.59-2.81 0 0-.72-1.3-1.29-2.73-.1-.27-.3-.41-.3-.41s-.22-.18-.55-.23l-3.42.02c-.53 0-.71.25-.71.25s-.19.2-.02.62c2.68 6.43 5.73 9.65 5.73 9.65s2.78 2.97 5.95 2.77h1.43c.44-.04.66-.28.66-.28s.21-.23.19-.65c-.02-1.97.88-2.27.88-2.27.87-.28 2 1.91 3.2 2.75 0 0 .91.64 1.6.5l3.19-.05c1.69-.01.89-1.44.89-1.44-.06-.12-.46-1-2.39-2.83-2-1.9-1.73-1.59.69-4.89 1.48-2.01 2.06-3.23 1.88-3.76z"/>
    <path d="M24.97 2.01s-.18-.51-1.26-.37l-3.6.03a.8.8 0 0 0-.48.07s-.21.12-.31.4c-.38.99-.83 1.95-1.34 2.87-1.6 2.79-2.25 2.94-2.51 2.76-.61-.39-.45-1.61-.45-2.47 0-2.71.4-3.84-.79-4.13A6.63 6.63 0 0 0 12.55 1c-1.29-.01-2.38 0-2.99.31-.41.21-.72.67-.54.69.24.04.78.15 1.07.55 0 0 .31.52.36 1.67.13 3.18-.5 3.58-.5 3.58-.49.27-1.34-.18-2.59-2.81 0 0-.72-1.3-1.29-2.73-.1-.27-.3-.41-.3-.41s-.22-.18-.55-.23l-3.42.02c-.53 0-.71.25-.71.25s-.19.2-.02.62c2.68 6.43 5.73 9.65 5.73 9.65s2.78 2.97 5.95 2.77h1.43c.44-.04.66-.28.66-.28s.21-.23.19-.65c-.02-1.97.88-2.27.88-2.27.87-.28 2 1.91 3.2 2.75 0 0 .91.64 1.6.5l3.19-.05c1.69-.01.89-1.44.89-1.44-.06-.12-.46-1-2.39-2.83-2-1.9-1.73-1.59.69-4.89 1.48-2.01 2.06-3.23 1.88-3.76z"/>
</symbol><symbol id="icon-star" viewBox="0 0 18 17">
    
    <path stroke-miterlimit="50" stroke-width="2" d="M159 208.5l-5.29 2.78 1.01-5.89-4.28-4.17 5.91-.86L159 195l2.65 5.36 5.91.86-4.28 4.17 1.01 5.89z" clip-path="url(&quot;#a&quot;)" transform="translate(-150 -195)"/>
</symbol><symbol id="icon-tile" viewBox="0 0 16 16">
    <path d="M6.12 5.65a.47.47 0 0 0-.47.47v3.76c0 .26.21.47.47.47h3.76c.26 0 .47-.21.47-.47V6.12a.47.47 0 0 0-.47-.47zm.47.94h2.82v2.82H6.59zM6.12 0a.47.47 0 0 0-.47.47v3.77c0 .26.21.47.47.47h3.76c.26 0 .47-.21.47-.47V.47A.47.47 0 0 0 9.88 0zm.47.94h2.82v2.82H6.59zm-.47 10.35a.47.47 0 0 0-.47.47v3.77c0 .26.21.47.47.47h3.76c.26 0 .47-.21.47-.47v-3.77a.47.47 0 0 0-.47-.47zm.47.95h2.82v2.82H6.59zm-6.12-.95a.47.47 0 0 0-.47.47v3.77c0 .26.21.47.47.47h3.77c.26 0 .47-.21.47-.47v-3.77a.47.47 0 0 0-.47-.47zm.47.95h2.82v2.82H.94zM.47 5.65a.47.47 0 0 0-.47.47v3.76c0 .26.21.47.47.47h3.77c.26 0 .47-.21.47-.47V6.12a.47.47 0 0 0-.47-.47zm.47.94h2.82v2.82H.94zM.47 0A.47.47 0 0 0 0 .47v3.77c0 .26.21.47.47.47h3.77c.26 0 .47-.21.47-.47V.47A.47.47 0 0 0 4.24 0zm.47.94h2.82v2.82H.94zM11.76 0a.47.47 0 0 0-.47.47v3.77c0 .26.21.47.47.47h3.77c.26 0 .47-.21.47-.47V.47a.47.47 0 0 0-.47-.47zm.48.94h2.82v2.82h-2.82zm-.48 4.71a.47.47 0 0 0-.47.47v3.76c0 .26.21.47.47.47h3.77c.26 0 .47-.21.47-.47V6.12a.47.47 0 0 0-.47-.47zm.48.94h2.82v2.82h-2.82zm-.48 4.7a.47.47 0 0 0-.47.47v3.77c0 .26.21.47.47.47h3.77c.26 0 .47-.21.47-.47v-3.77a.47.47 0 0 0-.47-.47zm.48.95h2.82v2.82h-2.82z"/>
</symbol></svg>